<svg xmlns="http://www.w3.org/2000/svg" xmlns:xlink="http://www.w3.org/1999/xlink" width="1920" zoomAndPan="magnify" viewBox="0 0 1440 809.999993" height="1080" preserveAspectRatio="xMidYMid meet" version="1.0"><defs><clipPath id="93cabc87e2"><path d="M 713.925781 387.449219 L 725.925781 387.449219 L 725.925781 399.449219 L 713.925781 399.449219 Z M 713.925781 387.449219 " clip-rule="nonzero"/></clipPath><clipPath id="f21a6e7a78"><path d="M 719.925781 387.449219 C 716.609375 387.449219 713.925781 390.136719 713.925781 393.449219 C 713.925781 396.765625 716.609375 399.449219 719.925781 399.449219 C 723.238281 399.449219 725.925781 396.765625 725.925781 393.449219 C 725.925781 390.136719 723.238281 387.449219 719.925781 387.449219 Z M 719.925781 387.449219 " clip-rule="nonzero"/></clipPath><clipPath id="15d3a38c28"><path d="M 824.015625 250.011719 L 846.234375 250.011719 L 846.234375 272.230469 L 824.015625 272.230469 Z M 824.015625 250.011719 " clip-rule="nonzero"/></clipPath><clipPath id="9ba4ab6835"><path d="M 835.125 250.011719 C 828.988281 250.011719 824.015625 254.988281 824.015625 261.121094 C 824.015625 267.257812 828.988281 272.230469 835.125 272.230469 C 841.261719 272.230469 846.234375 267.257812 846.234375 261.121094 C 846.234375 254.988281 841.261719 250.011719 835.125 250.011719 Z M 835.125 250.011719 " clip-rule="nonzero"/></clipPath><clipPath id="0b8657318b"><path d="M 594.019531 249.917969 L 616.332031 249.917969 L 616.332031 272.230469 L 594.019531 272.230469 Z M 594.019531 249.917969 " clip-rule="nonzero"/></clipPath><clipPath id="7519cfe910"><path d="M 605.175781 249.917969 C 599.011719 249.917969 594.019531 254.914062 594.019531 261.074219 C 594.019531 267.238281 599.011719 272.230469 605.175781 272.230469 C 611.335938 272.230469 616.332031 267.238281 616.332031 261.074219 C 616.332031 254.914062 611.335938 249.917969 605.175781 249.917969 Z M 605.175781 249.917969 " clip-rule="nonzero"/></clipPath><clipPath id="a981eb8f5a"><path d="M 605.175781 350 L 742 350 L 742 391 L 605.175781 391 Z M 605.175781 350 " clip-rule="nonzero"/></clipPath><clipPath id="0ce3a30d07"><path d="M 729 357 L 835.425781 357 L 835.425781 395.738281 L 729 395.738281 Z M 729 357 " clip-rule="nonzero"/></clipPath><clipPath id="ae79fed1b6"><path d="M 640.769531 385.632812 L 704.519531 385.632812 L 704.519531 516.171875 L 640.769531 516.171875 Z M 640.769531 385.632812 " clip-rule="nonzero"/></clipPath><clipPath id="36d9611e44"><path d="M 700.269531 391 L 797.492188 391 L 797.492188 516.171875 L 700.269531 516.171875 Z M 700.269531 391 " clip-rule="nonzero"/></clipPath></defs><rect x="-144" width="1728" fill="#ffffff" y="-80.999999" height="971.999992" fill-opacity="1"/><path stroke-linecap="butt" transform="matrix(0, 0.75, -0.75, 0, 606.674976, 272.325006)" fill="none" stroke-linejoin="miter" d="M -0.00105007 1.998926 L 383.998969 1.998926 " stroke="#000000" stroke-width="4" stroke-opacity="1" stroke-miterlimit="4"/><path stroke-linecap="butt" transform="matrix(0.535555, -0.525054, 0.525054, 0.535555, 718.273218, 393.446367)" fill="none" stroke-linejoin="miter" d="M 0.00257832 1.999072 L 214.266449 1.99908 " stroke="#000000" stroke-width="4" stroke-opacity="1" stroke-miterlimit="4"/><path stroke-linecap="butt" transform="matrix(0.535555, 0.525054, -0.525054, 0.535555, 605.173512, 279.882546)" fill="none" stroke-linejoin="miter" d="M 0.00102411 1.998006 L 214.264895 1.997998 " stroke="#000000" stroke-width="4" stroke-opacity="1" stroke-miterlimit="4"/><path stroke-linecap="butt" transform="matrix(0, 0.75, -0.75, 0, 836.174916, 272.325006)" fill="none" stroke-linejoin="miter" d="M -0.00105007 1.998847 L 383.998969 1.998847 " stroke="#000000" stroke-width="4" stroke-opacity="1" stroke-miterlimit="4"/><g clip-path="url(#93cabc87e2)"><g clip-path="url(#f21a6e7a78)"><path fill="#000000" d="M 713.925781 387.449219 L 725.925781 387.449219 L 725.925781 399.449219 L 713.925781 399.449219 Z M 713.925781 387.449219 " fill-opacity="1" fill-rule="nonzero"/></g></g><g clip-path="url(#15d3a38c28)"><g clip-path="url(#9ba4ab6835)"><path fill="#000000" d="M 824.015625 250.011719 L 846.234375 250.011719 L 846.234375 272.230469 L 824.015625 272.230469 Z M 824.015625 250.011719 " fill-opacity="1" fill-rule="nonzero"/></g></g><g clip-path="url(#0b8657318b)"><g clip-path="url(#7519cfe910)"><path fill="#000000" d="M 594.019531 249.917969 L 616.332031 249.917969 L 616.332031 272.230469 L 594.019531 272.230469 Z M 594.019531 249.917969 " fill-opacity="1" fill-rule="nonzero"/></g></g><path fill="#000000" d="M 648.15625 388.871094 L 702.65625 415.226562 L 733.796875 407.238281 L 733.796875 366.902344 Z M 702.261719 419.167969 L 637.382812 387.796875 L 735.53125 362.617188 L 737.515625 362.75 L 737.515625 410.125 L 702.261719 419.167969 " fill-opacity="1" fill-rule="nonzero"/><path fill="#000000" d="M 737.515625 367.46875 L 737.515625 406.285156 L 789.957031 392.828125 Z M 733.796875 411.078125 L 733.644531 361.53125 L 800.730469 393.90625 L 733.796875 411.078125 " fill-opacity="1" fill-rule="nonzero"/><path fill="#000000" d="M 705.113281 418.4375 L 721.027344 451.59375 L 813.265625 427.542969 L 794.449219 395.519531 Z M 719 455.96875 L 699.800781 415.960938 L 795.085938 391.515625 L 796.476562 391.628906 L 818.964844 429.902344 L 719 455.96875 " fill-opacity="1" fill-rule="nonzero"/><path fill="#000000" d="M 624.488281 419.097656 L 682.308594 448.796875 L 699.859375 418.007812 L 643.417969 390.714844 Z M 683.777344 453.730469 L 619.082031 420.503906 L 641.929688 386.242188 L 641.988281 386.15625 L 643.257812 386.503906 L 705.058594 416.390625 L 683.777344 453.730469 " fill-opacity="1" fill-rule="nonzero"/><g clip-path="url(#a981eb8f5a)"><path fill="#000000" d="M 617.769531 377.332031 L 642.863281 386.390625 L 730.125 364.003906 L 708.308594 353.941406 Z M 642.675781 390.277344 L 605.175781 376.738281 L 708.660156 350.007812 L 741.1875 365.007812 L 642.675781 390.277344 " fill-opacity="1" fill-rule="nonzero"/></g><g clip-path="url(#0ce3a30d07)"><path fill="#000000" d="M 741.878906 365.445312 L 795.636719 391.445312 L 823.019531 387.378906 L 769.476562 361.285156 Z M 795.050781 395.292969 L 729.433594 363.5625 L 770.0625 357.4375 L 835.441406 389.292969 L 795.050781 395.292969 " fill-opacity="1" fill-rule="nonzero"/></g><g clip-path="url(#ae79fed1b6)"><path fill="#000000" d="M 643.113281 386.4375 L 640.910156 385.953125 L 640.910156 394.472656 L 643.417969 390.714844 L 646.984375 392.4375 L 700.597656 418.367188 L 700.597656 511.167969 L 644.628906 482.84375 L 644.628906 429.441406 L 640.910156 427.53125 L 640.910156 485.132812 L 702.242188 516.171875 L 704.316406 515.007812 L 704.316406 416.03125 L 643.113281 386.4375 " fill-opacity="1" fill-rule="nonzero"/></g><g clip-path="url(#36d9611e44)"><path fill="#000000" d="M 793.484375 432.703125 L 793.484375 488.921875 L 704.316406 511.796875 L 704.316406 418.640625 L 790.703125 396.480469 L 794.449219 395.519531 L 797.203125 400.203125 L 797.203125 391.585938 L 795.636719 391.445312 L 700.597656 415.753906 L 700.597656 515.339844 L 702.242188 516.171875 L 797.203125 491.808594 L 797.203125 431.730469 L 793.484375 432.703125 " fill-opacity="1" fill-rule="nonzero"/></g></svg>